<svg xmlns="http://www.w3.org/2000/svg"><symbol id="icon-arrow-triangle" viewBox="0 0 7 10">
<path d="M0.223333 9.11919C0.290736 9.15425 0.366413 9.17029 0.442243 9.16559C0.518072 9.16089 0.591191 9.13563 0.65375 9.09252L6.07042 5.34252C6.12577 5.30418 6.171 5.25299 6.20224 5.19334C6.23348 5.13369 6.2498 5.06736 6.2498 5.00002C6.2498 4.93269 6.23348 4.86636 6.20224 4.80671C6.171 4.74706 6.12577 4.69587 6.07042 4.65752L0.65375 0.907522C0.591239 0.864269 0.518087 0.838941 0.442214 0.83428C0.366341 0.829619 0.290639 0.845803 0.223304 0.88108C0.155969 0.916357 0.0995679 0.969382 0.0602071 1.03441C0.0208462 1.09945 2.56597e-05 1.17401 5.65963e-09 1.25002V8.75002C-1.25281e-05 8.82608 0.0207929 8.90069 0.0601614 8.96577C0.0995298 9.03084 0.155959 9.0839 0.223333 9.11919Z"/>
</symbol><symbol id="icon-arrow" viewBox="0 0 24 24">
<path d="M13.1171 0.066173L0.36753 11.1924C0.252163 11.293 0.15964 11.4173 0.0962285 11.557C0.0328172 11.6967 -5.31162e-07 11.8484 -5.2445e-07 12.002C-5.17738e-07 12.1555 0.0328172 12.3073 0.0962286 12.447C0.15964 12.5866 0.252163 12.711 0.36753 12.8116L13.1171 23.9344C13.1555 23.968 13.2027 23.9898 13.2531 23.9972C13.3035 24.0046 13.355 23.9972 13.4013 23.9761C13.4477 23.9549 13.487 23.9207 13.5146 23.8777C13.5422 23.8346 13.557 23.7845 13.557 23.7333L13.557 21.0179C13.557 20.8637 13.4904 20.7162 13.3737 20.6123L4.96403 13.2742L23.7333 13.2742C23.88 13.2742 24 13.1535 24 13.006L24 10.9946C24 10.8471 23.88 10.7264 23.7333 10.7264L4.96403 10.7264L13.3737 3.38828C13.4904 3.28772 13.557 3.14022 13.557 2.98266L13.557 0.267309C13.557 0.0393537 13.2904 -0.0846811 13.1171 0.066173Z"/>
</symbol><symbol id="icon-basket" viewBox="0 0 37 34">
<path d="M12.6435 33.7719C14.1216 33.7719 15.3198 32.6461 15.3198 31.2574C15.3198 29.8686 14.1216 28.7429 12.6435 28.7429C11.1654 28.7429 9.96716 29.8686 9.96716 31.2574C9.96716 32.6461 11.1654 33.7719 12.6435 33.7719Z"/>
<path d="M28.9039 33.7719C30.382 33.7719 31.5802 32.6461 31.5802 31.2574C31.5802 29.8686 30.382 28.7429 28.9039 28.7429C27.4258 28.7429 26.2275 29.8686 26.2275 31.2574C26.2275 32.6461 27.4258 33.7719 28.9039 33.7719Z"/>
<path d="M36.1359 4.01107C36.0253 3.88287 35.8857 3.7793 35.7274 3.7078C35.569 3.63631 35.3957 3.59866 35.22 3.59757H10.4548L11.228 5.8327H33.6618L30.4859 19.2435H12.6435L7.2075 3.07231C7.1487 2.90072 7.04659 2.74504 6.90989 2.61854C6.77319 2.49205 6.60594 2.39851 6.42243 2.34589L1.54551 0.937757C1.39555 0.894462 1.23799 0.879342 1.08181 0.89326C0.925634 0.907177 0.773903 0.94986 0.635282 1.01887C0.355326 1.15824 0.145765 1.3964 0.0527001 1.68094C-0.0403644 1.96548 -0.00930887 2.2731 0.139035 2.53613C0.287378 2.79916 0.540859 2.99605 0.843713 3.08349L5.11399 4.31281L10.5738 20.5175L8.62299 22.0151L8.46836 22.1604C7.98582 22.6828 7.71232 23.347 7.69495 24.0385C7.67758 24.7301 7.91743 25.4057 8.3732 25.9489C8.6974 26.3193 9.10938 26.6133 9.57618 26.8074C10.043 27.0015 10.5516 27.0902 11.0615 27.0665H30.9141C31.2295 27.0665 31.5321 26.9487 31.7552 26.7392C31.9782 26.5296 32.1036 26.2453 32.1036 25.9489C32.1036 25.6525 31.9782 25.3683 31.7552 25.1587C31.5321 24.9491 31.2295 24.8314 30.9141 24.8314H10.8711C10.7342 24.827 10.6007 24.7894 10.4837 24.7224C10.3666 24.6554 10.27 24.5612 10.203 24.4489C10.136 24.3365 10.101 24.2098 10.1014 24.0811C10.1017 23.9523 10.1374 23.8258 10.205 23.7138L13.0717 21.4786H31.4374C31.7124 21.485 31.9812 21.4016 32.1981 21.2426C32.415 21.0837 32.5665 20.859 32.6269 20.6069L36.3976 4.961C36.4338 4.79439 36.429 4.62222 36.3837 4.45761C36.3383 4.29299 36.2536 4.14027 36.1359 4.01107Z"/>
</symbol><symbol id="icon-facebook" viewBox="0 0 30 30">
<path d="M25.59 4.37333C22.6733 1.47167 19.11 0 15 0C10.8517 0 7.27833 1.47333 4.37833 4.375C1.47333 7.27667 0 10.8533 0 15C0 19.1083 1.47167 22.6717 4.37333 25.59C7.275 28.5167 10.85 30 15 30C19.1117 30 22.675 28.5167 25.5933 25.595C28.5183 22.6733 30 19.1083 30 15C30 10.8533 28.5167 7.27667 25.59 4.37333ZM23.2367 23.2383C21.3417 25.1367 19.1767 26.2183 16.6667 26.5467V18.3333H20V15H16.6667V12.6667C16.6667 12.5352 16.6926 12.405 16.7429 12.2836C16.7933 12.1622 16.8671 12.0518 16.9601 11.959C17.0532 11.8661 17.1636 11.7925 17.2851 11.7423C17.4067 11.6922 17.5369 11.6664 17.6683 11.6667H20V8.33333H17.6717C16.435 8.33333 15.4033 8.78833 14.5767 9.70333C13.75 10.615 13.3333 11.7283 13.3333 13.05V15H10V18.3333H13.3333V26.55C10.7967 26.225 8.62333 25.1417 6.73833 23.2433C4.44667 20.9367 3.33333 18.24 3.33333 15C3.33333 11.7233 4.445 9.02 6.73667 6.73333C9.02 4.445 11.7233 3.33333 15 3.33333C18.2417 3.33333 20.9367 4.44667 23.2417 6.73833C25.5467 9.025 26.6667 11.7283 26.6667 15C26.6667 18.235 25.545 20.9317 23.2367 23.2383Z"/>
</symbol><symbol id="icon-heart" viewBox="0 0 37 33">
<path d="M35.7588 6.90898C35.1959 5.6057 34.3843 4.42468 33.3694 3.43203C32.3538 2.43642 31.1563 1.64522 29.8421 1.10146C28.4793 0.53538 27.0177 0.245626 25.5421 0.249022C23.4719 0.249022 21.4521 0.815917 19.6968 1.88672C19.2769 2.14287 18.8779 2.42422 18.5 2.73076C18.1221 2.42422 17.7231 2.14287 17.3032 1.88672C15.5479 0.815917 13.5281 0.249022 11.4579 0.249022C9.96719 0.249022 8.52266 0.534569 7.15791 1.10146C5.83935 1.64736 4.65098 2.43262 3.63057 3.43203C2.61434 4.42356 1.80255 5.60486 1.24121 6.90898C0.65752 8.26533 0.359375 9.70566 0.359375 11.188C0.359375 12.5863 0.644922 14.0435 1.21182 15.5258C1.68633 16.7645 2.3666 18.0495 3.23584 19.3471C4.61318 21.4005 6.50703 23.5421 8.85859 25.7131C12.7555 29.3118 16.6146 31.7977 16.7783 31.8985L17.7735 32.5368C18.2145 32.8182 18.7813 32.8182 19.2223 32.5368L20.2175 31.8985C20.3813 31.7936 24.2361 29.3118 28.1372 25.7131C30.4888 23.5421 32.3826 21.4005 33.76 19.3471C34.6292 18.0495 35.3137 16.7645 35.784 15.5258C36.3509 14.0435 36.6364 12.5863 36.6364 11.188C36.6406 9.70566 36.3425 8.26533 35.7588 6.90898ZM18.5 29.2152C18.5 29.2152 3.55078 19.6368 3.55078 11.188C3.55078 6.90898 7.09072 3.44043 11.4579 3.44043C14.5275 3.44043 17.1898 5.15371 18.5 7.65644C19.8102 5.15371 22.4725 3.44043 25.5421 3.44043C29.9093 3.44043 33.4492 6.90898 33.4492 11.188C33.4492 19.6368 18.5 29.2152 18.5 29.2152Z"/>
<path d="M25.5421 3.44043C22.4725 3.44043 19.8102 5.15371 18.5 7.65645C17.1898 5.15371 14.5275 3.44043 11.4579 3.44043C7.09072 3.44043 3.55078 6.90898 3.55078 11.188C3.55078 19.6368 18.5 29.2152 18.5 29.2152C18.5 29.2152 33.4492 19.6368 33.4492 11.188C33.4492 6.90898 29.9093 3.44043 25.5421 3.44043Z" fill-opacity="0.1"/>
</symbol><symbol fill="none" id="icon-hedgehog-dark" viewBox="0 0 37 22">
<path d="M5.7376 9.2643C5.7376 9.2643 3.36416 12.206 3.64888 14.0095L2.03564 15.4331V16.2873C2.03564 16.2873 5.92666 17.9005 9.62805 16.7616V18.1852L9.72314 19.6088L11.6211 20.3679C11.6211 20.3679 13.8038 19.9886 14.3732 16.9512C14.3732 16.9512 16.651 17.8054 17.6003 20.2734L20.2579 20.0832C20.2579 20.0832 20.6371 18.6596 20.1628 17.7109L31.8364 17.5207L32.9753 18.565V19.7039L33.5447 20.3679H34.7787L35.7274 19.3241L34.6836 15.6227L35.5378 12.9651C35.5378 12.9651 25.6676 18.9443 12.0009 11.1623L10.9571 8.979C10.9571 8.979 8.77388 9.35882 8.86898 9.92827C8.86898 9.92827 8.39406 8.41013 5.73703 9.2643H5.7376Z" fill="#9B9B9A"/>
<path d="M8.58485 6.36916L6.5918 9.50111C6.5918 9.50111 8.91684 9.5962 8.86957 10.4025C8.82174 11.2094 10.2932 11.7789 8.63212 14.1518L9.8661 14.7212L10.6724 14.1039L11.5744 12.1109L12.0015 11.1622C12.0015 11.1622 22.8677 19.3713 35.5378 12.965L36.4392 11.2567L33.592 8.40948L33.26 7.17607L32.8802 5.56226L30.6503 5.13518L28.6572 2.8574L24.1489 2.09833L21.7288 1.1969L19.5461 2.76287L17.3628 2.24069L14.9905 3.90176L13.8989 3.94902L11.9531 3.7594L10.6719 6.51152L9.34335 6.55879L8.58428 6.36916H8.58485Z" fill="#195557"/>
<path d="M11.9303 4.16882C11.4429 5.45007 10.8865 6.04457 10.4418 6.49557C10.2896 6.6523 10.085 6.74743 9.86716 6.76277C9.64926 6.7781 9.43337 6.71257 9.26076 6.57871L8.58654 6.05141L6.63676 8.92938C6.50995 9.11654 6.33922 9.26979 6.13949 9.37571C5.93976 9.48163 5.71712 9.537 5.49104 9.53697C5.49104 9.53697 3.96948 11.3996 3.4399 13.4126C3.29184 13.9769 2.93765 14.4661 2.46957 14.8146L2.25261 14.9769C2.25261 14.9769 0.914413 16.0941 2.5117 16.5799C2.5117 16.5799 7.99147 18.3104 11.0283 15.8903" stroke="black" stroke-width="2" stroke-miterlimit="10" stroke-linecap="round" stroke-linejoin="round"/>
<path d="M21.563 1.70142C21.563 1.70142 20.5243 2.40012 19.7408 2.54932C19.4048 2.61367 19.0791 2.68029 18.7642 2.74862L16.9602 2.36596C16.0656 3.38811 14.8225 3.87498 13.9473 4.25879" stroke="black" stroke-width="2" stroke-miterlimit="10" stroke-linecap="round" stroke-linejoin="round"/>
<path d="M32.1456 5.40285C31.0147 5.40285 30.6935 5.31572 30.0557 4.80094C29.5612 4.40309 29.1422 3.91952 28.8189 3.37335L28.5866 2.98043C27.0826 2.98043 25.4734 2.79821 24.0037 2.55676" stroke="black" stroke-width="2" stroke-miterlimit="10" stroke-linecap="round" stroke-linejoin="round"/>
<path d="M35.728 10.9236C33.965 10.2665 33.7156 8.4095 33.1324 7.65784" stroke="black" stroke-width="2" stroke-miterlimit="10" stroke-linecap="round" stroke-linejoin="round"/>
<path d="M9.85469 18.4659L9.72543 18.7352C9.64192 18.9088 9.60381 19.1008 9.61466 19.2931C9.62552 19.4854 9.68499 19.6719 9.7875 19.835C9.89002 19.9981 10.0322 20.1325 10.2008 20.2257C10.3694 20.3189 10.5589 20.3678 10.7516 20.3678H11.6781C11.8834 20.3679 12.0849 20.3125 12.2614 20.2075C12.4378 20.1024 12.5825 19.9516 12.6803 19.771L14.3003 16.774C14.3003 16.774 16.294 17.5997 17.0075 19.6418C17.1629 20.0865 17.6048 20.3678 18.0758 20.3678H19.2277C19.3874 20.3682 19.5453 20.335 19.6913 20.2703C19.8372 20.2056 19.9679 20.1109 20.0748 19.9923C20.1817 19.8738 20.2625 19.734 20.3118 19.5822C20.3611 19.4303 20.3778 19.2698 20.3609 19.111C20.3023 18.5826 20.1952 18.0348 20.0005 17.7939C20.0005 17.7939 28.631 18.0428 31.3934 17.4454C31.9765 17.319 32.5573 17.6721 32.686 18.2546C32.7486 18.537 32.7856 18.8537 32.7669 19.1868C32.7304 19.8359 33.2526 20.3678 33.9023 20.3678H34.1244C34.7645 20.3678 35.2633 19.9122 35.3049 19.3189C35.3749 18.3258 35.2969 16.8179 34.4234 15.6568C34.4234 15.6568 35.0685 15.0919 35.0566 13.3295" stroke="black" stroke-width="2" stroke-miterlimit="10" stroke-linecap="round" stroke-linejoin="round"/>
<path d="M8.93903 10.1936C8.93903 10.1936 10.1485 8.29906 11.2282 9.99885C11.9565 11.1463 11.0528 12.87 10.3883 13.8699C10.2351 14.0997 10.0071 14.2694 9.74295 14.3499C9.47881 14.4305 9.19492 14.417 8.9396 14.3118V14.3118" stroke="black" stroke-width="2" stroke-miterlimit="10" stroke-linecap="round" stroke-linejoin="round"/>
<path d="M13.6147 8.70113L16.462 6.35217" stroke="black" stroke-width="2" stroke-miterlimit="10" stroke-linecap="round" stroke-linejoin="round"/>
<path d="M15.9637 11.8461L19.3804 10.6742" stroke="black" stroke-width="2" stroke-miterlimit="10" stroke-linecap="round" stroke-linejoin="round"/>
<path d="M19.0245 7.65784L22.4679 6.06738" stroke="black" stroke-width="2" stroke-miterlimit="10" stroke-linecap="round" stroke-linejoin="round"/>
<path d="M20.7458 13.7548L24.6477 13.3295" stroke="black" stroke-width="2" stroke-miterlimit="10" stroke-linecap="round" stroke-linejoin="round"/>
<path d="M25.7866 9.86047L29.7016 10.562" stroke="black" stroke-width="2" stroke-miterlimit="10" stroke-linecap="round" stroke-linejoin="round"/>
<path d="M24.732 7.50125L27.8377 6.07593" stroke="black" stroke-width="2" stroke-miterlimit="10" stroke-linecap="round" stroke-linejoin="round"/>
<path d="M28.2033 13.9241L31.7686 14.879" stroke="black" stroke-width="2" stroke-miterlimit="10" stroke-linecap="round" stroke-linejoin="round"/>
</symbol><symbol fill="none" id="icon-hedgehog" viewBox="0 0 63 36">
<path d="M8.58798 14.586C8.58798 14.586 4.41998 19.752 4.91998 22.919L2.08698 25.419V26.919C2.08698 26.919 8.91998 29.752 15.42 27.752V30.252L15.587 32.752L18.92 34.085C18.92 34.085 22.753 33.419 23.753 28.085C23.753 28.085 27.753 29.585 29.42 33.919L34.087 33.585C34.087 33.585 34.753 31.085 33.92 29.419L54.42 29.085L56.42 30.919V32.919L57.42 34.085H59.587L61.253 32.252L59.42 25.752L60.92 21.085C60.92 21.085 43.587 31.585 19.587 17.919L17.754 14.085C17.754 14.085 13.92 14.752 14.087 15.752C14.087 15.752 13.253 13.086 8.58698 14.586H8.58798Z" fill="#9B9B9A"/>
<path d="M19.463 5.63799C18.607 7.88799 17.63 8.93199 16.849 9.72399C16.5818 9.99922 16.2226 10.1663 15.8399 10.1932C15.4573 10.2201 15.0781 10.1051 14.775 9.86999L13.591 8.94399L10.167 13.998C9.94434 14.3267 9.64451 14.5958 9.29377 14.7818C8.94302 14.9678 8.55204 15.065 8.15503 15.065C8.15503 15.065 5.48303 18.336 4.55303 21.871C4.29303 22.862 3.67103 23.721 2.84903 24.333L2.46803 24.618C2.46803 24.618 0.118029 26.58 2.92303 27.433C2.92303 27.433 12.546 30.472 17.879 26.222M36.379 1.30499C36.379 1.30499 34.555 2.53199 33.179 2.79399C32.589 2.90699 32.017 3.02399 31.464 3.14399L28.296 2.47199C26.725 4.26699 24.542 5.12199 23.005 5.79599M54.963 7.80499C52.977 7.80499 52.413 7.65199 51.293 6.74799C50.4246 6.04931 49.6889 5.20013 49.121 4.24099L48.713 3.55099C46.072 3.55099 43.246 3.23099 40.665 2.80699M61.254 17.5C58.158 16.346 57.72 13.085 56.696 11.765M15.818 30.745L15.591 31.218C15.4444 31.5229 15.3775 31.8599 15.3965 32.1977C15.4156 32.5355 15.52 32.8629 15.7 33.1493C15.8801 33.4357 16.1298 33.6718 16.4259 33.8354C16.722 33.9991 17.0547 34.0849 17.393 34.085H19.02C19.3806 34.0852 19.7346 33.9879 20.0444 33.8034C20.3542 33.6189 20.6084 33.3541 20.78 33.037L23.625 27.774C23.625 27.774 27.126 29.224 28.379 32.81C28.652 33.591 29.428 34.085 30.255 34.085H32.278C32.5584 34.0857 32.8357 34.0274 33.0921 33.9138C33.3484 33.8002 33.5779 33.6338 33.7656 33.4256C33.9533 33.2174 34.0951 32.972 34.1817 32.7053C34.2682 32.4387 34.2977 32.1568 34.268 31.878C34.165 30.95 33.977 29.988 33.635 29.565C33.635 29.565 48.791 30.002 53.642 28.953C54.666 28.731 55.686 29.351 55.912 30.374C56.022 30.87 56.087 31.426 56.054 32.011C55.99 33.151 56.907 34.085 58.048 34.085H58.438C59.562 34.085 60.438 33.285 60.511 32.243C60.634 30.499 60.497 27.851 58.963 25.812C58.963 25.812 60.096 24.82 60.075 21.725M14.21 16.218C14.21 16.218 16.334 12.891 18.23 15.876C19.509 17.891 17.922 20.918 16.755 22.674C16.4861 23.0775 16.0856 23.3754 15.6218 23.5169C15.1579 23.6584 14.6594 23.6348 14.211 23.45M22.421 13.597L27.421 9.47199M26.546 19.12L32.546 17.062M31.921 11.765L37.968 8.97199M34.944 22.472L41.796 21.725M43.796 15.633L50.671 16.865M41.944 11.49L47.398 8.98699M48.04 22.769L54.301 24.446" stroke="#195557" stroke-width="2" stroke-miterlimit="10" stroke-linecap="round" stroke-linejoin="round"/>
</symbol><symbol id="icon-info" viewBox="0 0 33 33">
<path d="M16.5 0.3125C7.56074 0.3125 0.3125 7.56074 0.3125 16.5C0.3125 25.4393 7.56074 32.6875 16.5 32.6875C25.4393 32.6875 32.6875 25.4393 32.6875 16.5C32.6875 7.56074 25.4393 0.3125 16.5 0.3125ZM16.5 29.9414C9.07832 29.9414 3.05859 23.9217 3.05859 16.5C3.05859 9.07832 9.07832 3.05859 16.5 3.05859C23.9217 3.05859 29.9414 9.07832 29.9414 16.5C29.9414 23.9217 23.9217 29.9414 16.5 29.9414Z"/>
<path d="M14.7656 10.1406C14.7656 10.6006 14.9484 11.0418 15.2736 11.367C15.5989 11.6923 16.04 11.875 16.5 11.875C16.96 11.875 17.4011 11.6923 17.7264 11.367C18.0516 11.0418 18.2344 10.6006 18.2344 10.1406C18.2344 9.68064 18.0516 9.23949 17.7264 8.91424C17.4011 8.58898 16.96 8.40625 16.5 8.40625C16.04 8.40625 15.5989 8.58898 15.2736 8.91424C14.9484 9.23949 14.7656 9.68064 14.7656 10.1406V10.1406ZM17.3672 14.1875H15.6328C15.4738 14.1875 15.3438 14.3176 15.3438 14.4766V24.3047C15.3438 24.4637 15.4738 24.5938 15.6328 24.5938H17.3672C17.5262 24.5938 17.6562 24.4637 17.6562 24.3047V14.4766C17.6562 14.3176 17.5262 14.1875 17.3672 14.1875Z"/>
</symbol><symbol id="icon-instagram" viewBox="0 0 30 30">
<path d="M15 0C6.66667 0 0 6.66667 0 15C0 23.3333 6.66667 30 15 30C23.3333 30 30 23.3333 30 15C30 6.66667 23.3333 0 15 0ZM15 11.6667C16.8333 11.6667 18.3333 13.1667 18.3333 15C18.3333 16.8333 16.8333 18.3333 15 18.3333C13.1667 18.3333 11.6667 16.8333 11.6667 15C11.6667 13.1667 13.1667 11.6667 15 11.6667ZM19.6667 8.33333C19.6667 7.16667 20.6667 6.33333 21.6667 6.33333C22.6667 6.33333 23.6667 7.33333 23.6667 8.33333C23.6667 9.33333 22.8333 10.3333 21.6667 10.3333C20.5 10.3333 19.6667 9.5 19.6667 8.33333ZM15 26.6667C8.5 26.6667 3.33333 21.5 3.33333 15H8.33333C8.33333 18.6667 11.3333 21.6667 15 21.6667C18.6667 21.6667 21.6667 18.6667 21.6667 15H26.6667C26.6667 21.5 21.5 26.6667 15 26.6667Z"/>
</symbol><symbol id="icon-phone" viewBox="0 0 27 27">
<path d="M18.33 18.48L20.57 16.24C20.8717 15.942 21.2534 15.7381 21.6688 15.6529C22.0842 15.5676 22.5154 15.6049 22.91 15.76L25.64 16.85C26.0388 17.0119 26.3808 17.2882 26.6228 17.6441C26.8648 18 26.9961 18.4196 27 18.85V23.85C26.9977 24.1428 26.9361 24.432 26.8191 24.7004C26.702 24.9688 26.5318 25.2107 26.3188 25.4115C26.1058 25.6124 25.8543 25.7681 25.5796 25.8692C25.3048 25.9704 25.0124 26.0148 24.72 26C5.59 24.81 1.73 8.60998 1 2.40998C0.966113 2.10552 0.997075 1.79733 1.09085 1.50569C1.18462 1.21405 1.33908 0.945572 1.54407 0.717916C1.74905 0.490259 1.99992 0.308585 2.28016 0.184844C2.5604 0.0611026 2.86366 -0.00190019 3.17 -2.01661e-05H8C8.43101 0.00125562 8.85178 0.131447 9.2082 0.373809C9.56461 0.616171 9.84037 0.95962 10 1.35998L11.09 4.08998C11.2503 4.48305 11.2911 4.91462 11.2075 5.33079C11.124 5.74696 10.9196 6.12928 10.62 6.42998L8.38 8.66998C8.38 8.66998 9.67 17.4 18.33 18.48Z"/>
</symbol><symbol fill="none" id="icon-plus" viewBox="0 0 28 28">
<path d="M25.6667 12.3333H15.6667V2.33332C15.6667 1.8913 15.4911 1.46737 15.1785 1.15481C14.866 0.842252 14.442 0.666656 14 0.666656C13.558 0.666656 13.1341 0.842252 12.8215 1.15481C12.5089 1.46737 12.3334 1.8913 12.3334 2.33332V12.3333H2.33335C1.89133 12.3333 1.4674 12.5089 1.15484 12.8215C0.842282 13.134 0.666687 13.558 0.666687 14C0.666687 14.442 0.842282 14.8659 1.15484 15.1785C1.4674 15.4911 1.89133 15.6667 2.33335 15.6667H12.3334V25.6667C12.3334 26.1087 12.5089 26.5326 12.8215 26.8452C13.1341 27.1577 13.558 27.3333 14 27.3333C14.442 27.3333 14.866 27.1577 15.1785 26.8452C15.4911 26.5326 15.6667 26.1087 15.6667 25.6667V15.6667H25.6667C26.1087 15.6667 26.5326 15.4911 26.8452 15.1785C27.1578 14.8659 27.3334 14.442 27.3334 14C27.3334 13.558 27.1578 13.134 26.8452 12.8215C26.5326 12.5089 26.1087 12.3333 25.6667 12.3333Z" fill="#195557"/>
</symbol><symbol id="icon-rouble" viewBox="0 0 20 26">
<path d="M10.84 0.880005C13.6667 0.880005 15.84 1.38667 17.36 2.4C18.88 3.41334 19.64 5.05334 19.64 7.32001C19.64 12.1733 16.1067 14.6 9.03999 14.6H0.91999C0.893324 14.6 0.853324 14.5467 0.79999 14.44C0.773324 14.3333 0.75999 14.2267 0.75999 14.12C0.75999 14.0133 0.773324 13.9067 0.79999 13.8C0.853324 13.6933 0.893324 13.64 0.91999 13.64H3.19999V4.24C3.19999 3.44001 3.13332 2.85334 2.99999 2.48001C2.86666 2.10667 2.59999 1.85334 2.19999 1.72C1.79999 1.56 1.18666 1.48 0.35999 1.48C0.27999 1.48 0.23999 1.40001 0.23999 1.24001C0.23999 1.08001 0.27999 1.00001 0.35999 1.00001L2.47999 1.04C3.70666 1.09334 4.67999 1.12 5.39999 1.12C6.03999 1.12 6.79999 1.08 7.67999 1.00001C8.02666 0.973338 8.46666 0.94667 8.99999 0.920004C9.53332 0.893338 10.1467 0.880005 10.84 0.880005ZM8.63999 13.64C10.9067 13.64 12.4933 13.24 13.4 12.44C14.3333 11.6133 14.8 10.1733 14.8 8.12C14.8 3.88001 13.0533 1.76001 9.55999 1.76001C8.81332 1.76001 8.30666 1.93334 8.03999 2.28C7.77332 2.62667 7.63999 3.30667 7.63999 4.32V13.64H8.63999ZM16.08 16.84C16.1867 16.84 16.24 16.9867 16.24 17.28C16.24 17.6 16.1867 17.76 16.08 17.76H7.63999V22.6C7.63999 23.4533 7.73332 24.08 7.91999 24.48C8.10666 24.8533 8.45332 25.12 8.95999 25.28C9.49333 25.44 10.3333 25.52 11.48 25.52C11.56 25.52 11.6 25.6 11.6 25.76C11.6 25.92 11.56 26 11.48 26C10.3867 26 9.53332 25.9867 8.91999 25.96L5.43999 25.92L2.51999 25.96C1.98666 25.9867 1.26666 26 0.35999 26C0.27999 26 0.23999 25.92 0.23999 25.76C0.23999 25.6 0.27999 25.52 0.35999 25.52C1.21332 25.52 1.82666 25.4533 2.19999 25.32C2.59999 25.1867 2.86666 24.9333 2.99999 24.56C3.13332 24.16 3.19999 23.56 3.19999 22.76V17.76H0.91999C0.893324 17.76 0.853324 17.7067 0.79999 17.6C0.773324 17.4933 0.75999 17.3867 0.75999 17.28C0.75999 17.1733 0.773324 17.08 0.79999 17C0.853324 16.8933 0.893324 16.84 0.91999 16.84H16.08Z"/>
</symbol><symbol id="icon-search" viewBox="0 0 30 32">
<path class="path1" d="M20.571 14.857q0-3.304-2.348-5.652t-5.652-2.348-5.652 2.348-2.348 5.652 2.348 5.652 5.652 2.348 5.652-2.348 2.348-5.652zM29.714 29.714q0 0.929-0.679 1.607t-1.607 0.679q-0.964 0-1.607-0.679l-6.125-6.107q-3.196 2.214-7.125 2.214-2.554 0-4.884-0.991t-4.018-2.679-2.679-4.018-0.991-4.884 0.991-4.884 2.679-4.018 4.018-2.679 4.884-0.991 4.884 0.991 4.018 2.679 2.679 4.018 0.991 4.884q0 3.929-2.214 7.125l6.125 6.125q0.661 0.661 0.661 1.607z"/>
</symbol><symbol id="icon-syringe" viewBox="0 0 36 34">
<path d="M28.3773 0.435181L26.3088 2.50374L26.8478 3.04281L23.5689 6.32174L25.59 8.38887L28.8718 5.06249L30.9375 7.12962L27.6126 10.4071L29.6797 12.4297L32.9586 9.15074L33.4977 9.68981L35.5663 7.62124L28.3773 0.435181ZM20.4711 5.46643L18.4025 7.53499L19.347 8.47799L5.06251 22.807L4.56801 23.3001L4.65858 23.9757L5.15164 28.557L5.19764 29.0501L5.33133 29.1406L0.660889 33.8125H4.74914L7.67014 30.8929L12.0258 31.3414L12.7014 31.432L13.1944 30.9375L27.5249 16.6516L28.4679 17.5961L30.535 15.5289L20.4711 5.46643ZM21.4141 10.5437L25.4578 14.5859L11.6664 28.4219L8.25233 28.0179L7.98208 27.7477L7.57814 24.3336L21.4141 10.5437Z"/>
</symbol><symbol id="icon-twitter" viewBox="0 0 30 30">
<path d="M20.465 12.1383C21.0617 11.77 21.46 11.27 21.6533 10.6317C21.1067 10.9276 20.52 11.1426 19.9117 11.27C19.6629 10.9964 19.3583 10.7793 19.0184 10.6335C18.6786 10.4877 18.3114 10.4166 17.9417 10.425C17.1683 10.425 16.5167 10.6967 15.9833 11.2233C15.7264 11.474 15.5232 11.7745 15.3862 12.1063C15.2493 12.4381 15.1814 12.7944 15.1867 13.1533C15.1867 13.3817 15.215 13.5867 15.2733 13.76C12.9933 13.68 11.1083 12.7367 9.62167 10.9167C9.37781 11.3311 9.24733 11.8025 9.24333 12.2833C9.24333 13.2467 9.65 14.01 10.46 14.5717C10.0344 14.5429 9.6197 14.4242 9.24333 14.2233C9.24333 14.9117 9.445 15.4867 9.85167 15.9933C10.2567 16.4933 10.78 16.8133 11.4167 16.9483C11.1797 17.0083 10.9361 17.038 10.6917 17.0367C10.5248 17.0462 10.3577 17.0253 10.1983 16.975C10.3717 17.5367 10.6917 17.99 11.155 18.3383C11.6167 18.6883 12.15 18.8717 12.75 18.8883C11.787 19.654 10.5885 20.0627 9.35833 20.045C9.045 20.045 8.825 20.0417 8.69167 20.0167C9.94109 20.8293 11.4029 21.2544 12.8933 21.2383C14.4783 21.2383 15.88 20.8367 17.0967 20.0333C18.3133 19.235 19.215 18.25 19.7917 17.0883C20.3627 15.9659 20.6602 14.7243 20.66 13.465V13.1167C21.22 12.695 21.675 12.22 22.0233 11.6933C21.5275 11.9144 21.0028 12.0643 20.465 12.1383ZM15 30C10.85 30 7.275 28.5167 4.37333 25.59C1.47167 22.6717 0 19.1083 0 15C0 10.8533 1.47333 7.27667 4.37833 4.375C7.27833 1.47333 10.8517 0 15 0C19.11 0 22.6733 1.47167 25.59 4.37333C28.5167 7.27667 30 10.8533 30 15C30 19.1083 28.5183 22.6733 25.5933 25.595C22.675 28.5167 19.1117 30 15 30ZM15 3.33333C11.7233 3.33333 9.02 4.445 6.73667 6.73333C4.445 9.02 3.33333 11.7233 3.33333 15C3.33333 18.24 4.44667 20.9367 6.73833 23.2417C9.025 25.5467 11.7267 26.6667 15 26.6667C18.2383 26.6667 20.9333 25.545 23.2367 23.2383C25.545 20.9317 26.6667 18.235 26.6667 15C26.6667 11.7283 25.5467 9.025 23.2417 6.73833C20.9367 4.44667 18.2417 3.33333 15 3.33333Z"/>
</symbol></svg>