<svg width="33" height="33" viewBox="0 0 33 33" xmlns="http://www.w3.org/2000/svg">
<path d="M16.5 0.3125C7.56074 0.3125 0.3125 7.56074 0.3125 16.5C0.3125 25.4393 7.56074 32.6875 16.5 32.6875C25.4393 32.6875 32.6875 25.4393 32.6875 16.5C32.6875 7.56074 25.4393 0.3125 16.5 0.3125ZM16.5 29.9414C9.07832 29.9414 3.05859 23.9217 3.05859 16.5C3.05859 9.07832 9.07832 3.05859 16.5 3.05859C23.9217 3.05859 29.9414 9.07832 29.9414 16.5C29.9414 23.9217 23.9217 29.9414 16.5 29.9414Z" />
<path d="M14.7656 10.1406C14.7656 10.6006 14.9484 11.0418 15.2736 11.367C15.5989 11.6923 16.04 11.875 16.5 11.875C16.96 11.875 17.4011 11.6923 17.7264 11.367C18.0516 11.0418 18.2344 10.6006 18.2344 10.1406C18.2344 9.68064 18.0516 9.23949 17.7264 8.91424C17.4011 8.58898 16.96 8.40625 16.5 8.40625C16.04 8.40625 15.5989 8.58898 15.2736 8.91424C14.9484 9.23949 14.7656 9.68064 14.7656 10.1406V10.1406ZM17.3672 14.1875H15.6328C15.4738 14.1875 15.3438 14.3176 15.3438 14.4766V24.3047C15.3438 24.4637 15.4738 24.5938 15.6328 24.5938H17.3672C17.5262 24.5938 17.6562 24.4637 17.6562 24.3047V14.4766C17.6562 14.3176 17.5262 14.1875 17.3672 14.1875Z"/>
</svg>
