<svg width="20" height="26" viewBox="0 0 20 26" xmlns="http://www.w3.org/2000/svg">
<path d="M10.84 0.880005C13.6667 0.880005 15.84 1.38667 17.36 2.4C18.88 3.41334 19.64 5.05334 19.64 7.32001C19.64 12.1733 16.1067 14.6 9.03999 14.6H0.91999C0.893324 14.6 0.853324 14.5467 0.79999 14.44C0.773324 14.3333 0.75999 14.2267 0.75999 14.12C0.75999 14.0133 0.773324 13.9067 0.79999 13.8C0.853324 13.6933 0.893324 13.64 0.91999 13.64H3.19999V4.24C3.19999 3.44001 3.13332 2.85334 2.99999 2.48001C2.86666 2.10667 2.59999 1.85334 2.19999 1.72C1.79999 1.56 1.18666 1.48 0.35999 1.48C0.27999 1.48 0.23999 1.40001 0.23999 1.24001C0.23999 1.08001 0.27999 1.00001 0.35999 1.00001L2.47999 1.04C3.70666 1.09334 4.67999 1.12 5.39999 1.12C6.03999 1.12 6.79999 1.08 7.67999 1.00001C8.02666 0.973338 8.46666 0.94667 8.99999 0.920004C9.53332 0.893338 10.1467 0.880005 10.84 0.880005ZM8.63999 13.64C10.9067 13.64 12.4933 13.24 13.4 12.44C14.3333 11.6133 14.8 10.1733 14.8 8.12C14.8 3.88001 13.0533 1.76001 9.55999 1.76001C8.81332 1.76001 8.30666 1.93334 8.03999 2.28C7.77332 2.62667 7.63999 3.30667 7.63999 4.32V13.64H8.63999ZM16.08 16.84C16.1867 16.84 16.24 16.9867 16.24 17.28C16.24 17.6 16.1867 17.76 16.08 17.76H7.63999V22.6C7.63999 23.4533 7.73332 24.08 7.91999 24.48C8.10666 24.8533 8.45332 25.12 8.95999 25.28C9.49333 25.44 10.3333 25.52 11.48 25.52C11.56 25.52 11.6 25.6 11.6 25.76C11.6 25.92 11.56 26 11.48 26C10.3867 26 9.53332 25.9867 8.91999 25.96L5.43999 25.92L2.51999 25.96C1.98666 25.9867 1.26666 26 0.35999 26C0.27999 26 0.23999 25.92 0.23999 25.76C0.23999 25.6 0.27999 25.52 0.35999 25.52C1.21332 25.52 1.82666 25.4533 2.19999 25.32C2.59999 25.1867 2.86666 24.9333 2.99999 24.56C3.13332 24.16 3.19999 23.56 3.19999 22.76V17.76H0.91999C0.893324 17.76 0.853324 17.7067 0.79999 17.6C0.773324 17.4933 0.75999 17.3867 0.75999 17.28C0.75999 17.1733 0.773324 17.08 0.79999 17C0.853324 16.8933 0.893324 16.84 0.91999 16.84H16.08Z" />
</svg>
